<svg id="l_d_6193" xmlns="http://www.w3.org/2000/svg" xmlns:xlink="http://www.w3.org/1999/xlink" viewBox="0 0 45 45" width="45" height="45" preserveAspectRatio="xMidYMid meet" style="width: 100%; height: 100%; transform: translate3d(0px, 0px, 0px); content-visibility: visible;"><defs id="l_d_6194"><clipPath id="__lottie_element_2732"><rect id="l_d_6197" width="45" height="45" x="0" y="0"></rect></clipPath><clipPath id="__lottie_element_2740"><path id="l_d_6212" d="M0,0 L30,0 L30,34 L0,34z"></path></clipPath><g id="__lottie_element_2743"><g id="l_d_6215" transform="matrix(1,0,0,1,0.8479995727539062,-1.4010000228881836)" opacity="1" style="display: block;"><path id="l_d_6220" fill="rgb(255,0,0)" fill-opacity="1" d=" M22.8,7.83 C22.8,7.83 19.97,5 19.97,5 C19.97,5 13.9,11.07 13.9,11.07 C13.9,11.07 7.83,5 7.83,5 C7.83,5 5,7.83 5,7.83 C5,7.83 11.07,13.9 11.07,13.9 C11.07,13.9 5,19.97 5,19.97 C5,19.97 7.83,22.8 7.83,22.8 C7.83,22.8 13.9,16.73 13.9,16.73 C13.9,16.73 19.97,22.8 19.97,22.8 C19.97,22.8 22.8,19.97 22.8,19.97 C22.8,19.97 16.73,13.9 16.73,13.9 C16.73,13.9 22.8,7.83 22.8,7.83z"></path><g id="l_d_6221" opacity="1" transform="matrix(1,0,0,1,13.901000022888184,13.899999618530273)"><path id="l_d_6222" stroke-linecap="round" stroke-linejoin="round" fill-opacity="0" stroke="rgb(34,34,34)" stroke-opacity="1" stroke-width="2" d=" M8.899999618530273,-6.070000171661377 C8.899999618530273,-6.070000171661377 6.070000171661377,-8.899999618530273 6.070000171661377,-8.899999618530273 C6.070000171661377,-8.899999618530273 0.0010000000474974513,-2.8310000896453857 0.0010000000474974513,-2.8310000896453857 C0.0010000000474974513,-2.8310000896453857 -6.070000171661377,-8.899999618530273 -6.070000171661377,-8.899999618530273 C-6.070000171661377,-8.899999618530273 -8.899999618530273,-6.070000171661377 -8.899999618530273,-6.070000171661377 C-8.899999618530273,-6.070000171661377 -2.8310000896453857,-0.0010000000474974513 -2.8310000896453857,-0.0010000000474974513 C-2.8310000896453857,-0.0010000000474974513 -8.899999618530273,6.070000171661377 -8.899999618530273,6.070000171661377 C-8.899999618530273,6.070000171661377 -6.070000171661377,8.899999618530273 -6.070000171661377,8.899999618530273 C-6.070000171661377,8.899999618530273 0.0010000000474974513,2.8289999961853027 0.0010000000474974513,2.8289999961853027 C0.0010000000474974513,2.8289999961853027 6.070000171661377,8.899999618530273 6.070000171661377,8.899999618530273 C6.070000171661377,8.899999618530273 8.899999618530273,6.070000171661377 8.899999618530273,6.070000171661377 C8.899999618530273,6.070000171661377 2.8310000896453857,-0.0010000000474974513 2.8310000896453857,-0.0010000000474974513 C2.8310000896453857,-0.0010000000474974513 8.899999618530273,-6.070000171661377 8.899999618530273,-6.070000171661377z"></path></g></g></g><filter id="__lottie_element_2749" filterUnits="objectBoundingBox" x="0%" y="0%" width="100%" height="100%"><feComponentTransfer id="l_d_6236" in="SourceGraphic"><feFuncA id="l_d_6237" type="table" tableValues="1.0 0.0"></feFuncA></feComponentTransfer></filter><mask id="__lottie_element_2743_2" mask-type="alpha"><g id="l_d_6234" filter="url(#__lottie_element_2749)"><rect id="l_d_6238" width="30" height="34" x="0" y="0" fill="#ffffff" opacity="0"></rect><use id="l_d_6239" xlink:href="#__lottie_element_2743"></use></g></mask></defs><g id="l_d_6195" clip-path="url(#__lottie_element_2732)"><g id="l_d_6240" transform="matrix(1,0,0,1,1.125,34.99700164794922)" opacity="1" style="display: block;"><g id="l_d_6244" opacity="1" transform="matrix(1,0,0,1,0,0)"><path id="l_d_6245" stroke-linecap="butt" stroke-linejoin="miter" fill-opacity="0" stroke-miterlimit="10" stroke="rgb(34,34,34)" stroke-opacity="1" stroke-width="2" d=" M1,1 C1,1 29,1 29,1"></path></g></g><g id="l_d_6209" clip-path="url(#__lottie_element_2740)" transform="matrix(1,0,0,1,1.375,5.5)" opacity="1" style="display: block;"><g id="l_d_6224" mask="url(#__lottie_element_2743_2)" style="display: block;"><g id="l_d_6223" transform="matrix(1,0,0,1,5.694999694824219,8.333999633789062)" opacity="1"><g id="l_d_6227" opacity="1" transform="matrix(1,0,0,1,3.375999927520752,11.704999923706055)"><path id="l_d_6228" stroke-linecap="round" stroke-linejoin="round" fill-opacity="0" stroke="rgb(34,34,34)" stroke-opacity="1" stroke-width="2" d=" M-2.187999963760376,10.079999923706055 C-2.187999963760376,10.079999923706055 2.121000051498413,-9.432000160217285 2.121000051498413,-9.432000160217285 C2.121000051498413,-9.432000160217285 4.179999828338623,-9.413999557495117 4.179999828338623,-9.413999557495117"></path></g><g id="l_d_6229" opacity="1" transform="matrix(1,0,0,1,14.732999801635742,11.704999923706055)"><path id="l_d_6230" stroke-linecap="round" stroke-linejoin="round" fill-opacity="0" stroke="rgb(34,34,34)" stroke-opacity="1" stroke-width="2" d=" M2.312999963760376,10.329999923706055 C2.312999963760376,10.329999923706055 -1.99399995803833,-9.303999900817871 -1.99399995803833,-9.303999900817871 C-1.99399995803833,-9.303999900817871 -3.365000009536743,-9.288999557495117 -3.365000009536743,-9.288999557495117"></path></g><g id="l_d_6231" opacity="1" transform="matrix(1,0,0,1,0,0)"><path id="l_d_6232" stroke-linecap="butt" stroke-linejoin="miter" fill-opacity="0" stroke-miterlimit="10" stroke="rgb(34,34,34)" stroke-opacity="1" stroke-width="2" d=" M2.3940000534057617,16.165000915527344 C2.3940000534057617,16.165000915527344 15.451000213623047,16.165000915527344 15.451000213623047,16.165000915527344"></path></g></g></g></g><g id="l_d_6203" transform="matrix(1,0,0,1,2.2229995727539062,4.0989990234375)" opacity="1" style="display: block;"><g id="l_d_6207" opacity="1" transform="matrix(1,0,0,1,13.901000022888184,13.899999618530273)"><path id="l_d_6208" stroke-linecap="round" stroke-linejoin="round" fill-opacity="0" stroke="rgb(34,34,34)" stroke-opacity="1" stroke-width="2" d=" M8.899999618530273,-6.070000171661377 C8.899999618530273,-6.070000171661377 6.070000171661377,-8.899999618530273 6.070000171661377,-8.899999618530273 C6.070000171661377,-8.899999618530273 0.0010000000474974513,-2.8310000896453857 0.0010000000474974513,-2.8310000896453857 C0.0010000000474974513,-2.8310000896453857 -6.070000171661377,-8.899999618530273 -6.070000171661377,-8.899999618530273 C-6.070000171661377,-8.899999618530273 -8.899999618530273,-6.070000171661377 -8.899999618530273,-6.070000171661377 C-8.899999618530273,-6.070000171661377 -2.8310000896453857,-0.0010000000474974513 -2.8310000896453857,-0.0010000000474974513 C-2.8310000896453857,-0.0010000000474974513 -8.899999618530273,6.070000171661377 -8.899999618530273,6.070000171661377 C-8.899999618530273,6.070000171661377 -6.070000171661377,8.899999618530273 -6.070000171661377,8.899999618530273 C-6.070000171661377,8.899999618530273 0.0010000000474974513,2.8289999961853027 0.0010000000474974513,2.8289999961853027 C0.0010000000474974513,2.8289999961853027 6.070000171661377,8.899999618530273 6.070000171661377,8.899999618530273 C6.070000171661377,8.899999618530273 8.899999618530273,6.070000171661377 8.899999618530273,6.070000171661377 C8.899999618530273,6.070000171661377 2.8310000896453857,-0.0010000000474974513 2.8310000896453857,-0.0010000000474974513 C2.8310000896453857,-0.0010000000474974513 8.899999618530273,-6.070000171661377 8.899999618530273,-6.070000171661377z"></path></g></g><g id="l_d_6198" style="display: none;"><rect id="l_d_6202" width="120" height="120" fill="#ffffff"></rect></g></g></svg>